<mxfile host="Electron" modified="2023-07-09T14:04:29.470Z" agent="Mozilla/5.0 (Windows NT 10.0; Win64; x64) AppleWebKit/537.36 (KHTML, like Gecko) draw.io/21.6.1 Chrome/112.0.5615.204 Electron/24.6.1 Safari/537.36" etag="14k8cNJ7NbTy8bpssfCX" version="21.6.1" type="device">
  <diagram name="第 1 页" id="gHzWxk7oOuLgtcImLSez">
    <mxGraphModel dx="872" dy="512" grid="1" gridSize="10" guides="1" tooltips="1" connect="1" arrows="1" fold="1" page="1" pageScale="1" pageWidth="1169" pageHeight="827" math="0" shadow="0">
      <root>
        <mxCell id="0" />
        <mxCell id="1" parent="0" />
        <mxCell id="8dCyaDHhqwboQLjsh2Zx-1" value="Pod" style="rounded=0;whiteSpace=wrap;html=1;fontSize=20;" vertex="1" parent="1">
          <mxGeometry x="490" y="180" width="140" height="50" as="geometry" />
        </mxCell>
        <mxCell id="8dCyaDHhqwboQLjsh2Zx-33" value="" style="edgeStyle=orthogonalEdgeStyle;rounded=0;orthogonalLoop=1;jettySize=auto;html=1;" edge="1" parent="1" source="8dCyaDHhqwboQLjsh2Zx-2" target="8dCyaDHhqwboQLjsh2Zx-3">
          <mxGeometry relative="1" as="geometry" />
        </mxCell>
        <mxCell id="8dCyaDHhqwboQLjsh2Zx-2" value="Cluster IP:Port" style="rounded=0;whiteSpace=wrap;html=1;fontSize=20;" vertex="1" parent="1">
          <mxGeometry x="475" y="260" width="170" height="50" as="geometry" />
        </mxCell>
        <mxCell id="8dCyaDHhqwboQLjsh2Zx-3" value="kube-proxy" style="rounded=0;whiteSpace=wrap;html=1;fontSize=16;" vertex="1" parent="1">
          <mxGeometry x="500" y="340" width="120" height="30" as="geometry" />
        </mxCell>
        <mxCell id="8dCyaDHhqwboQLjsh2Zx-4" value="外部Client" style="rounded=0;whiteSpace=wrap;html=1;fontSize=18;" vertex="1" parent="1">
          <mxGeometry x="290" y="170" width="120" height="50" as="geometry" />
        </mxCell>
        <mxCell id="8dCyaDHhqwboQLjsh2Zx-14" value="" style="group" vertex="1" connectable="0" parent="1">
          <mxGeometry x="650" y="250" width="230" height="50" as="geometry" />
        </mxCell>
        <mxCell id="8dCyaDHhqwboQLjsh2Zx-7" value="" style="endArrow=none;html=1;rounded=0;" edge="1" parent="8dCyaDHhqwboQLjsh2Zx-14">
          <mxGeometry width="50" height="50" relative="1" as="geometry">
            <mxPoint y="35" as="sourcePoint" />
            <mxPoint x="43.125" y="40" as="targetPoint" />
          </mxGeometry>
        </mxCell>
        <mxCell id="8dCyaDHhqwboQLjsh2Zx-8" value="" style="endArrow=none;html=1;rounded=0;" edge="1" parent="8dCyaDHhqwboQLjsh2Zx-14">
          <mxGeometry width="50" height="50" relative="1" as="geometry">
            <mxPoint y="35" as="sourcePoint" />
            <mxPoint x="43.125" y="30" as="targetPoint" />
          </mxGeometry>
        </mxCell>
        <mxCell id="8dCyaDHhqwboQLjsh2Zx-9" value="" style="endArrow=none;html=1;rounded=0;" edge="1" parent="8dCyaDHhqwboQLjsh2Zx-14">
          <mxGeometry width="50" height="50" relative="1" as="geometry">
            <mxPoint x="43.125" y="50" as="sourcePoint" />
            <mxPoint x="43.125" y="40" as="targetPoint" />
          </mxGeometry>
        </mxCell>
        <mxCell id="8dCyaDHhqwboQLjsh2Zx-10" value="" style="endArrow=none;html=1;rounded=0;" edge="1" parent="8dCyaDHhqwboQLjsh2Zx-14">
          <mxGeometry width="50" height="50" relative="1" as="geometry">
            <mxPoint x="43.125" y="30" as="sourcePoint" />
            <mxPoint x="43.125" as="targetPoint" />
          </mxGeometry>
        </mxCell>
        <mxCell id="8dCyaDHhqwboQLjsh2Zx-11" value="" style="endArrow=none;html=1;rounded=0;" edge="1" parent="8dCyaDHhqwboQLjsh2Zx-14">
          <mxGeometry width="50" height="50" relative="1" as="geometry">
            <mxPoint x="43.125" y="50" as="sourcePoint" />
            <mxPoint x="230" y="50" as="targetPoint" />
          </mxGeometry>
        </mxCell>
        <mxCell id="8dCyaDHhqwboQLjsh2Zx-12" value="" style="endArrow=none;html=1;rounded=0;" edge="1" parent="8dCyaDHhqwboQLjsh2Zx-14">
          <mxGeometry width="50" height="50" relative="1" as="geometry">
            <mxPoint x="43.125" as="sourcePoint" />
            <mxPoint x="230" as="targetPoint" />
          </mxGeometry>
        </mxCell>
        <mxCell id="8dCyaDHhqwboQLjsh2Zx-13" value="" style="endArrow=none;html=1;rounded=0;" edge="1" parent="8dCyaDHhqwboQLjsh2Zx-14">
          <mxGeometry width="50" height="50" relative="1" as="geometry">
            <mxPoint x="230" y="50" as="sourcePoint" />
            <mxPoint x="230" as="targetPoint" />
          </mxGeometry>
        </mxCell>
        <mxCell id="8dCyaDHhqwboQLjsh2Zx-15" value="&lt;font style=&quot;font-size: 18px;&quot;&gt;集群自动分配服务IP&lt;/font&gt;" style="text;html=1;align=center;verticalAlign=middle;resizable=0;points=[];autosize=1;strokeColor=none;fillColor=none;" vertex="1" parent="8dCyaDHhqwboQLjsh2Zx-14">
          <mxGeometry x="50" y="5" width="180" height="40" as="geometry" />
        </mxCell>
        <mxCell id="8dCyaDHhqwboQLjsh2Zx-32" value="" style="endArrow=classic;html=1;rounded=0;" edge="1" parent="1" target="8dCyaDHhqwboQLjsh2Zx-2">
          <mxGeometry width="50" height="50" relative="1" as="geometry">
            <mxPoint x="560" y="230" as="sourcePoint" />
            <mxPoint x="610" y="180" as="targetPoint" />
          </mxGeometry>
        </mxCell>
        <mxCell id="8dCyaDHhqwboQLjsh2Zx-43" value="" style="group" vertex="1" connectable="0" parent="1">
          <mxGeometry x="290" y="320" width="210" height="50" as="geometry" />
        </mxCell>
        <mxCell id="8dCyaDHhqwboQLjsh2Zx-36" value="" style="endArrow=none;html=1;rounded=0;" edge="1" parent="8dCyaDHhqwboQLjsh2Zx-43">
          <mxGeometry width="50" height="50" relative="1" as="geometry">
            <mxPoint y="50" as="sourcePoint" />
            <mxPoint as="targetPoint" />
          </mxGeometry>
        </mxCell>
        <mxCell id="8dCyaDHhqwboQLjsh2Zx-37" value="" style="endArrow=none;html=1;rounded=0;" edge="1" parent="8dCyaDHhqwboQLjsh2Zx-43">
          <mxGeometry width="50" height="50" relative="1" as="geometry">
            <mxPoint as="sourcePoint" />
            <mxPoint x="146.08695652173913" as="targetPoint" />
          </mxGeometry>
        </mxCell>
        <mxCell id="8dCyaDHhqwboQLjsh2Zx-38" value="" style="endArrow=none;html=1;rounded=0;" edge="1" parent="8dCyaDHhqwboQLjsh2Zx-43">
          <mxGeometry width="50" height="50" relative="1" as="geometry">
            <mxPoint y="50" as="sourcePoint" />
            <mxPoint x="146.08695652173913" y="50" as="targetPoint" />
          </mxGeometry>
        </mxCell>
        <mxCell id="8dCyaDHhqwboQLjsh2Zx-39" value="" style="endArrow=none;html=1;rounded=0;" edge="1" parent="8dCyaDHhqwboQLjsh2Zx-43">
          <mxGeometry width="50" height="50" relative="1" as="geometry">
            <mxPoint x="146.08695652173913" y="14.285714285714286" as="sourcePoint" />
            <mxPoint x="146.08695652173913" as="targetPoint" />
          </mxGeometry>
        </mxCell>
        <mxCell id="8dCyaDHhqwboQLjsh2Zx-40" value="" style="endArrow=none;html=1;rounded=0;" edge="1" parent="8dCyaDHhqwboQLjsh2Zx-43">
          <mxGeometry width="50" height="50" relative="1" as="geometry">
            <mxPoint x="146.08695652173913" y="50" as="sourcePoint" />
            <mxPoint x="146.08695652173913" y="28.571428571428573" as="targetPoint" />
          </mxGeometry>
        </mxCell>
        <mxCell id="8dCyaDHhqwboQLjsh2Zx-41" value="" style="endArrow=none;html=1;rounded=0;" edge="1" parent="8dCyaDHhqwboQLjsh2Zx-43">
          <mxGeometry width="50" height="50" relative="1" as="geometry">
            <mxPoint x="146.08695652173913" y="28.571428571428573" as="sourcePoint" />
            <mxPoint x="210" y="28.571428571428573" as="targetPoint" />
          </mxGeometry>
        </mxCell>
        <mxCell id="8dCyaDHhqwboQLjsh2Zx-42" value="" style="endArrow=none;html=1;rounded=0;" edge="1" parent="8dCyaDHhqwboQLjsh2Zx-43">
          <mxGeometry width="50" height="50" relative="1" as="geometry">
            <mxPoint x="146.08695652173913" y="14.285714285714286" as="sourcePoint" />
            <mxPoint x="210" y="28.571428571428573" as="targetPoint" />
          </mxGeometry>
        </mxCell>
        <mxCell id="8dCyaDHhqwboQLjsh2Zx-44" value="服务器由信息通过&lt;br&gt;watch API Server获取" style="text;html=1;strokeColor=none;fillColor=none;align=center;verticalAlign=middle;whiteSpace=wrap;rounded=0;" vertex="1" parent="8dCyaDHhqwboQLjsh2Zx-43">
          <mxGeometry y="7.15" width="141.74" height="35.71" as="geometry" />
        </mxCell>
        <mxCell id="8dCyaDHhqwboQLjsh2Zx-48" value="" style="group" vertex="1" connectable="0" parent="1">
          <mxGeometry x="560" y="310" width="330" height="50" as="geometry" />
        </mxCell>
        <mxCell id="8dCyaDHhqwboQLjsh2Zx-17" value="" style="endArrow=none;html=1;rounded=0;" edge="1" parent="8dCyaDHhqwboQLjsh2Zx-48">
          <mxGeometry width="50" height="50" relative="1" as="geometry">
            <mxPoint y="10" as="sourcePoint" />
            <mxPoint x="143.125" y="20" as="targetPoint" />
          </mxGeometry>
        </mxCell>
        <mxCell id="8dCyaDHhqwboQLjsh2Zx-18" value="" style="endArrow=none;html=1;rounded=0;" edge="1" parent="8dCyaDHhqwboQLjsh2Zx-48">
          <mxGeometry width="50" height="50" relative="1" as="geometry">
            <mxPoint y="10" as="sourcePoint" />
            <mxPoint x="143.125" y="10" as="targetPoint" />
          </mxGeometry>
        </mxCell>
        <mxCell id="8dCyaDHhqwboQLjsh2Zx-19" value="" style="endArrow=none;html=1;rounded=0;" edge="1" parent="8dCyaDHhqwboQLjsh2Zx-48">
          <mxGeometry width="50" height="50" relative="1" as="geometry">
            <mxPoint x="142.995" y="10" as="sourcePoint" />
            <mxPoint x="142.995" as="targetPoint" />
          </mxGeometry>
        </mxCell>
        <mxCell id="8dCyaDHhqwboQLjsh2Zx-20" value="" style="endArrow=none;html=1;rounded=0;" edge="1" parent="8dCyaDHhqwboQLjsh2Zx-48">
          <mxGeometry width="50" height="50" relative="1" as="geometry">
            <mxPoint x="142.995" y="50" as="sourcePoint" />
            <mxPoint x="142.995" y="20" as="targetPoint" />
          </mxGeometry>
        </mxCell>
        <mxCell id="8dCyaDHhqwboQLjsh2Zx-21" value="" style="endArrow=none;html=1;rounded=0;" edge="1" parent="8dCyaDHhqwboQLjsh2Zx-48">
          <mxGeometry width="50" height="50" relative="1" as="geometry">
            <mxPoint x="143.125" y="50" as="sourcePoint" />
            <mxPoint x="330" y="50" as="targetPoint" />
          </mxGeometry>
        </mxCell>
        <mxCell id="8dCyaDHhqwboQLjsh2Zx-22" value="" style="endArrow=none;html=1;rounded=0;" edge="1" parent="8dCyaDHhqwboQLjsh2Zx-48">
          <mxGeometry width="50" height="50" relative="1" as="geometry">
            <mxPoint x="143.125" as="sourcePoint" />
            <mxPoint x="330" as="targetPoint" />
          </mxGeometry>
        </mxCell>
        <mxCell id="8dCyaDHhqwboQLjsh2Zx-23" value="" style="endArrow=none;html=1;rounded=0;" edge="1" parent="8dCyaDHhqwboQLjsh2Zx-48">
          <mxGeometry width="50" height="50" relative="1" as="geometry">
            <mxPoint x="330" y="50" as="sourcePoint" />
            <mxPoint x="330" as="targetPoint" />
          </mxGeometry>
        </mxCell>
        <mxCell id="8dCyaDHhqwboQLjsh2Zx-35" value="通过iptables的DNAT&lt;br style=&quot;font-size: 16px;&quot;&gt;规则转发到kube-proxy" style="text;html=1;strokeColor=none;fillColor=none;align=center;verticalAlign=middle;whiteSpace=wrap;rounded=0;fontSize=16;" vertex="1" parent="8dCyaDHhqwboQLjsh2Zx-48">
          <mxGeometry x="150" y="10" width="180" height="30" as="geometry" />
        </mxCell>
        <mxCell id="8dCyaDHhqwboQLjsh2Zx-59" value="" style="rounded=0;whiteSpace=wrap;html=1;fillColor=none;" vertex="1" parent="1">
          <mxGeometry x="462.5" y="160" width="195" height="230" as="geometry" />
        </mxCell>
        <mxCell id="8dCyaDHhqwboQLjsh2Zx-60" value="" style="endArrow=classic;html=1;rounded=0;entryX=0;entryY=0.5;entryDx=0;entryDy=0;exitX=0.5;exitY=1;exitDx=0;exitDy=0;" edge="1" parent="1" source="8dCyaDHhqwboQLjsh2Zx-4" target="8dCyaDHhqwboQLjsh2Zx-2">
          <mxGeometry width="50" height="50" relative="1" as="geometry">
            <mxPoint x="200" y="290" as="sourcePoint" />
            <mxPoint x="440" y="290" as="targetPoint" />
          </mxGeometry>
        </mxCell>
        <mxCell id="8dCyaDHhqwboQLjsh2Zx-61" value="" style="endArrow=classic;html=1;rounded=0;exitX=0.5;exitY=1;exitDx=0;exitDy=0;entryX=0.5;entryY=0;entryDx=0;entryDy=0;" edge="1" parent="1" source="8dCyaDHhqwboQLjsh2Zx-3" target="8dCyaDHhqwboQLjsh2Zx-51">
          <mxGeometry width="50" height="50" relative="1" as="geometry">
            <mxPoint x="550" y="440" as="sourcePoint" />
            <mxPoint x="540" y="480" as="targetPoint" />
          </mxGeometry>
        </mxCell>
        <mxCell id="8dCyaDHhqwboQLjsh2Zx-49" value="Pod" style="rounded=0;whiteSpace=wrap;html=1;fontSize=18;" vertex="1" parent="1">
          <mxGeometry x="310" y="490" width="60" height="60" as="geometry" />
        </mxCell>
        <mxCell id="8dCyaDHhqwboQLjsh2Zx-50" value="Pod" style="rounded=0;whiteSpace=wrap;html=1;fontSize=18;" vertex="1" parent="1">
          <mxGeometry x="380" y="490" width="60" height="60" as="geometry" />
        </mxCell>
        <mxCell id="8dCyaDHhqwboQLjsh2Zx-51" value="Pod" style="rounded=0;whiteSpace=wrap;html=1;fontSize=18;" vertex="1" parent="1">
          <mxGeometry x="450" y="490" width="60" height="60" as="geometry" />
        </mxCell>
        <mxCell id="8dCyaDHhqwboQLjsh2Zx-52" value="" style="rounded=0;whiteSpace=wrap;html=1;fillColor=none;container=0;" vertex="1" parent="1">
          <mxGeometry x="300" y="480" width="220" height="80" as="geometry" />
        </mxCell>
        <mxCell id="8dCyaDHhqwboQLjsh2Zx-55" value="Pod" style="rounded=0;whiteSpace=wrap;html=1;fontSize=18;" vertex="1" parent="1">
          <mxGeometry x="610" y="490" width="60" height="60" as="geometry" />
        </mxCell>
        <mxCell id="8dCyaDHhqwboQLjsh2Zx-56" value="Pod" style="rounded=0;whiteSpace=wrap;html=1;fontSize=18;" vertex="1" parent="1">
          <mxGeometry x="680" y="490" width="60" height="60" as="geometry" />
        </mxCell>
        <mxCell id="8dCyaDHhqwboQLjsh2Zx-57" value="Pod" style="rounded=0;whiteSpace=wrap;html=1;fontSize=18;" vertex="1" parent="1">
          <mxGeometry x="750" y="490" width="60" height="60" as="geometry" />
        </mxCell>
        <mxCell id="8dCyaDHhqwboQLjsh2Zx-58" value="" style="rounded=0;whiteSpace=wrap;html=1;fillColor=none;" vertex="1" parent="1">
          <mxGeometry x="600" y="480" width="220" height="80" as="geometry" />
        </mxCell>
        <mxCell id="8dCyaDHhqwboQLjsh2Zx-62" value="" style="endArrow=classic;html=1;rounded=0;entryX=0.5;entryY=0;entryDx=0;entryDy=0;" edge="1" parent="1" target="8dCyaDHhqwboQLjsh2Zx-56">
          <mxGeometry width="50" height="50" relative="1" as="geometry">
            <mxPoint x="560" y="370" as="sourcePoint" />
            <mxPoint x="680" y="400" as="targetPoint" />
          </mxGeometry>
        </mxCell>
      </root>
    </mxGraphModel>
  </diagram>
</mxfile>
